<?xml version="1.0" encoding="UTF-8"?>
<svg width="1200pt" height="1200pt" version="1.1" viewBox="0 0 1200 1200" xmlns="http://www.w3.org/2000/svg">
 <g fill="#ee7f4c">
  <path d="m206.18 494.12c53.688-23.773 119.16-45.336 184.38-60.719l2.5195-0.60156c126.31-30.707 355.92-41.941 415.73-42.602-6.9609-31.332-14.617-58.754-19.117-74.125-7.1641 1.2852-15.406 1.9062-25.094 1.9062-36.215 0-79.98-9.3125-92.531-12.168-31.656-4.9688-96.047-31.668-147.78-53.113-24.371-10.105-47.387-19.645-54.973-21.637-34.465-10.332-70.895-15.551-108.39-15.551-78.254 0-142.71 22.188-172.27 34.391-79.996 92.129-128.97 211.35-130.95 341.93 32.402-35.578 82.008-68.293 148.49-97.715z"/>
  <path d="m840.62 314.46c6.2773 20.496 12.719 43.945 20.641 74.941 140.33 1.8008 215.62 24.938 254.96 45.301-26.293-80.566-71.219-152.81-129.84-211.71-3.6602 19.883-12.047 36.949-25.332 50.809-31.48 32.863-82.324 40.352-120.43 40.664z"/>
  <path d="m477.07 784.57c27.238-29.723 136.01-142.3 156.24-162.53 53.797-56.09 120.56-89.762 193.2-97.477-2.375-47.543-7.0781-76.895-8.8672-86.773-246.27 3.9727-441.14 62.555-443.09 63.156-186.03 49.348-271.57 140.89-307.98 196.55 20.016 108.09 72.602 204.86 147.45 279.93 81.938-33.398 238.81-167.4 263.05-192.86z"/>
  <path d="m520.93 183.06c123.01 65.566 208.13 82.895 235.95 82.895 8.9414-0.011719 13.008-1.1875 14.629-1.8594-0.17969-0.96094-0.625-2.7227-1.668-5.9023-0.51562-1.5586-0.98438-3.0469-1.3555-4.4023-53.645-141.7-144.32-182.61-167.69-191.03-0.26562 0-0.52734-0.023438-0.79297-0.023438-111.11 0-214.37 33.133-300.38 89.879 17.375-2.4375 35.387-3.7188 53.965-3.7188 75.789 0.023437 141.6 20.434 167.35 34.16z"/>
  <path d="m788.86 892.7c38.531-121.36 42.469-261.34 38.363-287.12-2.0742-12.996-8.0391-14.074-14.496-14.074-12.121 0-28.645 7.0195-39.574 11.664-5.4609 2.3281-9.7812 4.1523-13.391 5.1719-83.809 35.27-188.95 152.61-245.44 215.63-12.648 14.113-22.586 25.188-29.855 32.688-98.773 104.09-163.03 154.05-204.27 177.23 89.688 64.945 200.2 103.37 319.81 103.37 0.17969 0 0.34766-0.011719 0.52734-0.011719 79.609-37.68 141.46-118.05 188.32-244.54z"/>
  <path d="m870.5 438.64c2.6875 19.391 4.2617 48.191 5.6406 76.211l0.43359 8.5664c114.39 2.2422 159.25 84.996 174.09 112.36l1.332 2.4492c34.164 62.375 30.383 159.56 23.426 220.66 42.73-76.789 67.105-165.01 67.105-258.89 0-28.5-2.2812-56.461-6.6016-83.746-76.188-70.043-201.06-77.785-252.11-77.785-5.0547 0-9.5195 0.070313-13.312 0.17969z"/>
  <path d="m998.64 659.09c-29.629-51.348-55.609-67.129-90.457-77.051-3.9609-1.1289-7.5586-1.7031-10.727-1.7031-16.633 0-17.797 18.648-17.844 19.441-8.3633 229.67-25.691 288.93-38.34 332.2l-2.1953 7.5469c-17.734 61.812-46.945 123.29-82.656 174.94 104.27-31.055 195.34-92.258 262.79-173.47 34.664-133.47 4.0273-239.26-20.57-281.89z"/>
  <path d="m837.41 264.36c1.1055 0.097656 2.1719 0.19141 3.2148 0.30078 38.676-3.0352 66.875-14.594 83.172-34.332 17.629-21.348 15.156-46.152 15.121-46.402-0.13281-1.0938-0.097656-2.1953 0.046876-3.2656-63.805-50.652-139.38-87.277-222.06-105.28 53.195 55.754 88.559 145.05 96.938 167.61 8.8672 20.102 15.672 20.688 23.566 21.371z"/>
 </g>
</svg>
